<svg xmlns="http://www.w3.org/2000/svg" xml:space="preserve" id="Layer_1" x="0" y="0" version="1.1" viewBox="47.9 -3 180.61 286.5"><style>.st2{fill:none;stroke:#4e9a06;stroke-width:15}</style><path d="M228.4 175.5c-2-90-152-83-139 4 12 87 83 104 83 104s59-19 56-108" style="fill:#a40000"/><path d="M115.4 225.5c46 4 67 3 104-16-5 48-46 66-46 66s-43-12-57-50z" style="fill:#fff"/><path d="M145.4 124.5c-26-68-90-75-90-75" class="st2"/><path d="M147.4 123.5c0-50-68-116-68-116" class="st2"/><path d="M147.4 122.5c7-62-22-118-22-118" class="st2"/></svg>