<svg xmlns="http://www.w3.org/2000/svg" xml:space="preserve" id="Layer_1" x="0" y="0" version="1.1" viewBox="0 0 512 512"><style>.st1{fill:#443c3c;stroke:#443c3c;stroke-width:1.5}.st4,.st5{fill:#eee;stroke:#8e2222;stroke-width:10}.st5{fill:#8e2222;stroke-width:5}</style><circle id="svg_2" cx="256" cy="256" r="256" style="fill:#eee;stroke:#443c3c;stroke-width:1.5"/><circle id="svg_11" cx="256" cy="256" r="220.9" class="st1"/><circle id="svg_12" cx="256" cy="256" r="194.3" style="fill:#8e2222;stroke:#443c3c;stroke-width:1.5"/><circle id="svg_13" cx="256" cy="256" r="189.7" style="fill:#eee;stroke:#8e2222;stroke-width:1.5"/><circle id="svg_14" cx="255.3" cy="256.7" r="133" class="st1"/><path id="svg_3" d="M87.2 341s-2.5-178.7-2.9-179c.3-26.7 8.8-24 15.3-24.8 99.7 5.4 136 35.8 138.2 36.9 6.7 2.5 10.5 16 10.2 15.6.3.3 2.2 211.1 1.9 210.8 1.6 11.3-6.7 10.5-7 10.2-62.7-49.3-149.4-61.7-149.7-62-6-.5-6-7.7-6-7.7z" class="st4"/><path id="svg_4" d="M423.5 341.4s2.5-179.1 2.9-179.5c-.3-26.7-8.8-24.1-15.3-24.9-99.7 5.4-136 35.9-138.2 37-6.7 2.5-10.5 16-10.2 15.7-.3.3-2.2 211.6-1.9 211.3-1.6 11.3 6.7 10.6 7 10.2 62.7-49.4 149.4-61.8 149.7-62.2 6-.3 6-7.6 6-7.6z" class="st4"/><path id="svg_5" d="M85.9 369.7S83.3 191 83 190.7c.3-26.7 8.9-24 15.5-24.8 101.3 5.4 138.2 35.8 140.4 36.9 6.8 2.5 10.7 16 10.4 15.6.3.3 2.3 211.1 1.9 210.8 1.6 11.3-6.8 10.5-7.1 10.2-63.8-49.3-151.8-61.7-152.1-62-6.1-.4-6.1-7.7-6.1-7.7z" class="st5"/><path id="svg_6" d="M424.8 370s2.6-179.1 2.9-179.5c-.3-26.7-8.9-24.1-15.5-24.9-101.3 5.4-138.2 35.9-140.5 37-6.8 2.5-10.7 16-10.4 15.7-.3.3-2.3 211.6-1.9 211.3-1.6 11.3 6.8 10.6 7.1 10.2 63.8-49.4 151.8-61.8 152.1-62.2 6.2-.3 6.2-7.6 6.2-7.6z" class="st5"/></svg>